<?xml version="1.0" encoding="UTF-8"?>
<svg id="Layer_1" xmlns="http://www.w3.org/2000/svg" xmlns:xlink="http://www.w3.org/1999/xlink" version="1.1" viewBox="0 0 1024 1024">
  <!-- Generator: Adobe Illustrator 29.5.1, SVG Export Plug-In . SVG Version: 2.1.0 Build 141)  -->
  <defs>
    <style>
      .st0 {
        fill: none;
      }

      .st1 {
        fill: #ffce0b;
      }

      .st2 {
        fill: #cf5c2f;
      }

      .st3 {
        fill: #486765;
      }

      .st4 {
        fill: #fdfcfc;
      }

      .st5 {
        fill: #fff7ef;
      }

      .st6 {
        fill: #fae9da;
      }

      .st7 {
        clip-path: url(#clippath);
      }
    </style>
    <clipPath id="clippath">
      <circle class="st0" cx="512" cy="512" r="511.5"/>
    </clipPath>
  </defs>
  <g id="goose">
    <g>
      <circle class="st2" cx="512" cy="512" r="511.5"/>
      <g class="st7">
        <g>
          <path class="st5" d="M483.7,58.2c-1.3,9.4,4.7,9.4,3.3,0,70.8-4.1,139.1,3.5,184.6,63.6,36.7,48.4,27,92.9,30,149.9,39.8,6,74.5,39.7,74.5,81.4s-49.9,121.4-64.2,158.3c-61.6,158.6-57.4,314.3,1.6,473-4,.2-2,7.7-5.5,10.3-4.9,3.7-15.9-.6-23.1,2.5s-8,10.5-10.2,10.7c-3.5.4-8.4-3.5-12.4-2.8-3.8.7-10.6,10.5-21.3,12-16.7,2.3-38-.8-54.9,4.1-2.9.9-2.5,6.4-4.4,6.5-7.3.3-26.5-12.3-28.1,6.6h-16.7c-13-5.7-37.6-5.6-50,0h-16.7c0-10.2-4.6-8.5-11.6-10-17.5-3.8-34.9.6-48.3-3.3,7.7-4.3,10.2-3,12.5-12.4,14.9-61.8,22.3-164.5,24.4-229,1.4-44.1-2.5-87.8-3.5-131.8,39.6,12.2,115.2,9.3,153.2-8.3,90.1-41.8,28.6-170.7,26.7-244.8,40.5-6.3,45-52.6,4.1-65.9-4.1-1.3-13.2,0-14.1-.9-1.5-1.5.7-31.3-12.1-39.5-17.7-11.5-34,8.9-51.4,14.6-25,8.1-56.7,7.9-81.1-2-14-5.7-23.6-18.9-39.6-15.6-22.3,4.6-13.8,35.5-19.4,42.5-1,1.2-4.7-.2-6.4.2-6.8-26.1,22.2-47.8,25.9-65.7,5-24.5.4-64.3,4.1-92.5,4.8-36.2,15.6-77.9,43.2-103.3-5,.7-18.7-4.9-20-5,9.3,2.2,18.5-2.7,26.7-3.3h0ZM678.4,289.6c40.3-33.6.8-103.9-31.5-69.9-20.3,21.3-13.3,78.7,25.1,75.4,5.7-.5,4.4-3.7,6.4-5.4h0Z"/>
          <path class="st4" d="M537,1034.3h-50c12.3-5.6,36.9-5.7,50,0Z"/>
          <path class="st6" d="M457,61.5c1.2,0,15,5.6,20,5-27.6,25.4-38.5,67.1-43.2,103.3-3.7,28.1.9,68-4.1,92.5-3.7,18-32.7,39.6-25.9,65.7-47.5,11.9-48.2,53.7-3.2,68.5-5.4,48.8-19.8,101.6-23,150.1-3.1,46.2,20.7,87.2,66.2,101.2,1.1,43.9,4.9,87.7,3.5,131.8-2,64.5-9.4,167.3-24.4,229-2.3,9.4-4.8,8.1-12.5,12.4-11.7-3.4-15.3-7.9-30-3.4l3.4-6.6c-16.7,7.7-18-12-36.7-3.4l3.3-6.5c-9.1-6.5-28.1-2.9-34.9-6.6-2.8-1.5,5.2-1.5-8.4-6.8,66.2-161.7,65.1-323.7.6-485.3-13.7-34.4-60.8-118.3-60.8-149.3,0-26.9,20.6-60.4,44.5-72.3,10.9-5.4,20.3-5.3,32.3-12.7,2.1-1.3,4.5-2.1,6.7-3.3,13.2,64.8,80.2,15,50.6-39-12.5-22.9-42.9-16.2-50.6,5.7-8.8-8.9,2.2-27.7-6.7-36.6,5-61.9,68.4-136,133.3-133.3h0Z"/>
          <path class="st5" d="M330.4,231.4c-3,8.5-1.8,24.4,0,33.3-2.2,1.2-4.6,2-6.7,3.3,1.4-23.9-1.9-49.7,0-73.3,8.8,8.9-2.2,27.7,6.7,36.6h0Z"/>
          <path class="st4" d="M487,58.2c1.3,9.4-4.7,9.4-3.3,0,1.1,0,2.2,0,3.3,0Z"/>
          <path class="st1" d="M403.7,328c1.7-.4,5.4,1,6.4-.2,5.6-7-3-37.9,19.4-42.5,16-3.3,25.6,10,39.6,15.6,24.4,9.9,56.1,10.1,81.1,2,17.4-5.6,33.7-26.1,51.4-14.6,12.8,8.3,10.5,38.1,12.1,39.5.9.9,10-.5,14.1.9,40.9,13.3,36.4,59.6-4.1,65.9,1.9,74.1,63.5,203-26.7,244.8-38.1,17.6-113.6,20.6-153.2,8.3-45.5-14.1-69.3-55-66.2-101.2,3.3-48.5,17.6-101.4,23-150.1-45-14.8-44.3-56.7,3.2-68.5h0ZM592.6,408.5c-20.1,1.8-37.3,60-16.5,65.7,29,8,42.4-68,16.5-65.7ZM442.8,419c-28.6-23.7-33.7,36.4-8.8,57.1,28.7,23.9,29.2-40.2,8.8-57.1Z"/>
          <path class="st3" d="M678.4,289.6c-2,1.7-.8,4.9-6.4,5.4-38.4,3.4-45.4-54-25.1-75.4,32.3-34,71.8,36.3,31.5,69.9h0Z"/>
          <path class="st3" d="M330.4,264.7c-1.8-9-3-24.8,0-33.3,7.8-21.9,38.1-28.5,50.6-5.7,29.6,54-37.4,103.8-50.6,39h0Z"/>
          <path class="st3" d="M442.8,419c20.4,16.9,19.9,80.9-8.8,57.1-24.9-20.7-19.8-80.7,8.8-57.1Z"/>
          <path class="st3" d="M592.6,408.5c25.8-2.3,12.4,73.7-16.5,65.7-20.8-5.7-3.5-63.9,16.5-65.7Z"/>
        </g>
      </g>
    </g>
  </g>
</svg>