<?xml version="1.0" encoding="UTF-8"?>
<svg id="Layer_1" xmlns="http://www.w3.org/2000/svg" xmlns:xlink="http://www.w3.org/1999/xlink" version="1.1" viewBox="0 0 1024 1024">
  <!-- Generator: Adobe Illustrator 30.0.0, SVG Export Plug-In . SVG Version: 2.1.1 Build 123)  -->
  <defs>
    <style>
      .st0 {
        fill: none;
      }

      .st1 {
        fill: #474747;
      }

      .st2 {
        fill: #ffce0b;
      }

      .st3 {
        fill: #c1c1c1;
      }

      .st4 {
        fill: #373737;
      }

      .st5 {
        fill: #486765;
      }

      .st6 {
        fill: #fdfcfc;
      }

      .st7 {
        fill: #b7b7b7;
      }

      .st8 {
        fill: #fff7ef;
      }

      .st9 {
        fill: #fae9da;
      }

      .st10 {
        fill: #7f7f7f;
      }

      .st11 {
        fill: #c2c2c2;
      }

      .st12 {
        fill: #afafaf;
      }

      .st13 {
        clip-path: url(#clippath);
      }
    </style>
    <clipPath id="clippath">
      <circle class="st0" cx="512" cy="512" r="511.5"/>
    </clipPath>
  </defs>
  <g id="goose">
    <g>
      <circle class="st3" cx="512" cy="512" r="511.5"/>
      <g class="st13">
        <g>
          <path class="st8" d="M488.6,215.2c-1.1,7.9,4,7.9,2.8,0,59.6-3.5,117.1,2.9,155.4,53.5,30.9,40.7,22.7,78.2,25.3,126.2,33.5,5.1,62.7,33.4,62.7,68.5s-42,102.2-54,133.3c-51.9,133.5-48.3,264.6,1.3,398.2-3.4.2-1.7,6.5-4.6,8.7-4.1,3.1-13.4-.5-19.4,2.1s-6.7,8.8-8.6,9c-2.9.3-7.1-2.9-10.4-2.4-3.2.6-8.9,8.8-17.9,10.1-14.1,1.9-32-.7-46.2,3.5-2.4.8-2.1,5.4-3.7,5.5-6.1.3-22.3-10.4-23.7,5.6h-14.1c-10.9-4.8-31.7-4.7-42.1,0h-14.1c0-8.6-3.9-7.2-9.8-8.4-14.7-3.2-29.4.5-40.7-2.8,6.5-3.6,8.6-2.5,10.5-10.4,12.5-52,18.8-138.5,20.5-192.8,1.2-37.1-2.1-73.9-2.9-111,33.3,10.3,97,7.8,129-7,75.9-35.2,24.1-143.7,22.5-206.1,34.1-5.3,37.9-44.3,3.5-55.5-3.5-1.1-11.1,0-11.9-.8-1.3-1.3.6-26.4-10.2-33.3-14.9-9.7-28.6,7.5-43.3,12.3-21,6.8-47.7,6.7-68.3-1.7-11.8-4.8-19.9-15.9-33.3-13.1-18.8,3.9-11.6,29.9-16.3,35.8-.8,1-4-.2-5.4.2-5.7-22,18.7-40.2,21.8-55.3,4.2-20.6.3-54.1,3.5-77.9,4-30.5,13.1-65.6,36.4-87-4.2.6-15.7-4.1-16.8-4.2,7.8,1.9,15.6-2.3,22.5-2.8h.2ZM652.5,410c33.9-28.3.7-87.5-26.5-58.8-17.1,17.9-11.2,66.3,21.1,63.5,4.8-.4,3.7-3.1,5.4-4.5h0Z"/>
          <path class="st6" d="M533.5,1036.9h-42.1c10.4-4.7,31.1-4.8,42.1,0Z"/>
          <path class="st9" d="M466.1,218c1,0,12.6,4.7,16.8,4.2-23.2,21.4-32.4,56.5-36.4,87-3.1,23.7.8,57.2-3.5,77.9-3.1,15.2-27.5,33.3-21.8,55.3-40,10-40.6,45.2-2.7,57.7-4.5,41.1-16.7,85.5-19.4,126.4-2.6,38.9,17.4,73.4,55.7,85.2.9,37,4.1,73.8,2.9,111-1.7,54.3-7.9,140.8-20.5,192.8-1.9,7.9-4,6.8-10.5,10.4-9.8-2.9-12.9-6.7-25.3-2.9l2.9-5.6c-14.1,6.5-15.2-10.1-30.9-2.9l2.8-5.5c-7.7-5.5-23.7-2.4-29.4-5.6-2.4-1.3,4.4-1.3-7.1-5.7,55.7-136.1,54.8-272.5.5-408.6-11.5-29-51.2-99.6-51.2-125.7s17.3-50.8,37.5-60.9c9.2-4.5,17.1-4.5,27.2-10.7,1.8-1.1,3.8-1.8,5.6-2.8,11.1,54.6,67.5,12.6,42.6-32.8-10.5-19.3-36.1-13.6-42.6,4.8-7.4-7.5,1.9-23.3-5.6-30.8,4.2-52.1,57.6-114.5,112.2-112.2h0Z"/>
          <path class="st8" d="M359.5,361c-2.5,7.2-1.5,20.5,0,28-1.9,1-3.9,1.7-5.6,2.8,1.2-20.1-1.6-41.8,0-61.7,7.4,7.5-1.9,23.3,5.6,30.8h0Z"/>
          <path class="st6" d="M491.4,215.2c1.1,7.9-4,7.9-2.8,0h2.8Z"/>
          <path class="st2" d="M421.2,442.3c1.4-.3,4.5.8,5.4-.2,4.7-5.9-2.5-31.9,16.3-35.8,13.5-2.8,21.6,8.4,33.3,13.1,20.5,8.3,47.2,8.5,68.3,1.7,14.6-4.7,28.4-22,43.3-12.3,10.8,7,8.8,32.1,10.2,33.3.8.8,8.4-.4,11.9.8,34.4,11.2,30.6,50.2-3.5,55.5,1.6,62.4,53.5,170.9-22.5,206.1-32.1,14.8-95.6,17.3-129,7-38.3-11.9-58.3-46.3-55.7-85.2,2.8-40.8,14.8-85.4,19.4-126.4-37.9-12.5-37.3-47.7,2.7-57.7h0ZM580.3,510.1c-16.9,1.5-31.4,50.5-13.9,55.3,24.4,6.7,35.7-57.2,13.9-55.3ZM454.2,518.9c-24.1-20-28.4,30.6-7.4,48.1,24.2,20.1,24.6-33.8,7.4-48.1Z"/>
          <path class="st5" d="M652.5,410c-1.7,1.4-.7,4.1-5.4,4.5-32.3,2.9-38.2-45.5-21.1-63.5,27.2-28.6,60.4,30.6,26.5,58.8h0Z"/>
          <path class="st5" d="M359.5,389c-1.5-7.6-2.5-20.9,0-28,6.6-18.4,32.1-24,42.6-4.8,24.9,45.5-31.5,87.4-42.6,32.8h0Z"/>
          <path class="st5" d="M454.2,518.9c17.2,14.2,16.8,68.1-7.4,48.1-21-17.4-16.7-67.9,7.4-48.1Z"/>
          <path class="st5" d="M580.3,510.1c21.7-1.9,10.4,62-13.9,55.3-17.5-4.8-2.9-53.8,13.9-55.3Z"/>
        </g>
      </g>
    </g>
  </g>
  <g id="Generative_Object">
    <path class="st10" d="M551.3,32c7-.5,14.1-2.6,12.8,7.6-.6,4.7-23.5,51.2-27.2,56.1-12.1,15.6-27.8,16.1-45.3,9.2-25.6,34.8-35,92.3-19.6,133-37.5-4.9-87.7-18.3-107.8-52.9-2.2,17.4-12.1,48.8-5.2,64.5,18.5,42,113,55.8,153.1,55.7.6,13.8-30.1,5.7-32.9,16.4-4.4,16.8,38,45.2,52.5,46.9,21.3,2.4,79.6-9.8,101.8-16,42.4-11.9,132.9-51,132.6-104.2,3.6,43.5-36.6,75.2-70.9,93.8-108.5,58.7-293.8,57.4-393.9-18.4,1.4-3.1,6.4,4.4,8.4,4,1.1-.4,1.7-7.2,1.2-8.4-1.4-3.1-15.4-10.9-18.8-14-11.4-10.1-21-21.5-28.4-34.9l-5.6-22.8c4.5-45.5,71.5-70.2,109-80.5,7.3-33.7,12.7-70.3,24.8-102.6,36.1-95.9,78.9-9.4,132.6-21.2s18.7-8,26.8-11.2Z"/>
    <path class="st10" d="M301.3,323.7c-24.7-18.7-46.6-42.6-43.3-76.1l5.6,22.8c7.4,13.3,17.1,24.8,28.4,34.9,3.5,3.1,17.5,11,18.8,14s-.1,8-1.2,8.4c-2,.4-7-7.1-8.4-4Z"/>
    <path class="st4" d="M472,237.9c9,24.1,40.2,46.4,65.3,50.5,22.6,3.7,49.3,3.3,70.9,1.6-29.7,10.6-64.7,15.2-96.2,15.2s-134.6-13.7-153.1-55.7c-6.9-15.7,3-47.1,5.2-64.5,20.1,34.6,70.3,48,107.8,52.9Z"/>
    <path class="st1" d="M608.2,290c-21.6,1.7-48.3,2.1-70.9-1.6-25.1-4.1-56.3-26.4-65.3-50.5,45.8,6,100.3,2.5,143-16s36.3-19.3,45.7-36.1c2.9.2,8.2,53.6,7.6,57.3-3.4,20.4-42.5,40.6-60.1,46.9Z"/>
    <g>
      <path class="st12" d="M766.1,248.4c.3,53.2-90.2,92.2-132.6,104.2-22.2,6.2-80.5,18.5-101.8,16-14.5-1.7-56.9-30.1-52.5-46.9,2.8-10.7,33.5-2.6,32.9-16.4,31.5,0,66.5-4.6,96.2-15.2,17.6-6.3,56.7-26.5,60.1-46.9.6-3.7-4.7-57.1-7.6-57.3-9.4,16.7-28.4,28.6-45.7,36.1-42.7,18.5-97.3,22-143,16-15.3-40.8-5.9-98.2,19.6-133,17.5,6.9,33.1,6.4,45.3-9.2,3.8-4.9,26.6-51.4,27.2-56.1,1.3-10.2-5.9-8.1-12.8-7.6,29.4-11.5,50.1-26.2,71.3,9.2,20.5,34.4,26.5,87.8,35.3,126.6,35.4,7.5,108,37.2,108.2,80.5Z"/>
      <path class="st7" d="M565.7,99.3c0,0,.2-1.9-1.2-2.4-3.2-1.3-7.6,2.8-6.8-3.6.3-2.9,23.5-30.9,27.6-33.3,9.8-5.6,26.5-2.2,23.6-18.4,17.8,19.9,32,104.3,23.2,130.2-3.2,9.5-19.8,31.4-28.9,17.6s-11.8-29.1-13.6-34.5c-.9-2.5-.6-11.4-.8-12-.8-2.4-5.8-5.9-7.2-11.2s.3-22.4-4.4-22.8-3.3,1.9-4.8,1.6c-2.5-.6-3.8-8.5-6.8-11.2Z"/>
      <path class="st7" d="M682.3,195.5c8.7-3.5,42.2,21.2,52.5,22,1.3,1.9-1.5,7.3-1.6,8.8-.4,7.9,6.1,40.8-10,30.9-3-1.9-22.9-26.5-26-30.9-2.4-3.3-16.6-23.5-16.8-25.6s0-4.4,2-5.2Z"/>
      <path class="st11" d="M609,41.6c2.9,16.3-13.8,12.9-23.6,18.4s-27.3,30.3-27.6,33.3c-.8,6.4,3.6,2.4,6.8,3.6s1.1,2.3,1.2,2.4c-1.6-1.7-10.2-.7-11.6,0s-5.3,8.7-6.8,5.2c15.4-16.3,21.8-41.9,36.1-59.3,8.9-10.8,15.3-15.2,25.6-3.6Z"/>
    </g>
  </g>
</svg>