<?xml version="1.0" encoding="UTF-8"?>
<svg xmlns="http://www.w3.org/2000/svg" xmlns:xlink="http://www.w3.org/1999/xlink" viewBox="0 0 500 500">
  <defs>
    <style>
      .cls-1 {
        fill: none;
      }

      .cls-2 {
        fill: #ffce0b;
      }

      .cls-3 {
        opacity: .3;
      }

      .cls-3, .cls-4, .cls-5, .cls-6 {
        fill: #fff;
      }

      .cls-4 {
        opacity: .4;
      }

      .cls-7 {
        fill: #cf5c2f;
      }

      .cls-8 {
        fill: #486765;
      }

      .cls-9 {
        fill: #fdfcfc;
      }

      .cls-10 {
        fill: #fff7ef;
      }

      .cls-11 {
        fill: #fae9da;
      }

      .cls-12 {
        clip-path: url(#clippath);
      }

      .cls-6 {
        isolation: isolate;
        opacity: .7;
      }
    </style>
    <clipPath id="clippath">
      <circle class="cls-1" cx="179.09" cy="305.11" r="155.64"/>
    </clipPath>
  </defs>
  <g id="goose">
    <g>
      <circle class="cls-7" cx="179.09" cy="305.11" r="155.64"/>
      <g class="cls-12">
        <g>
          <path class="cls-10" d="M170.47,167.02c-.41,2.87,1.42,2.87,1.01,0,21.54-1.25,42.32,1.06,56.18,19.35,11.17,14.74,8.21,28.28,9.14,45.6,12.12,1.82,22.67,12.08,22.67,24.77,0,10.02-15.18,36.94-19.55,48.17-18.75,48.25-17.46,95.63.49,143.94-1.21.07-.62,2.35-1.68,3.14-1.49,1.12-4.83-.19-7.02.76s-2.43,3.18-3.11,3.26c-1.06.13-2.55-1.07-3.78-.86-1.17.2-3.22,3.21-6.48,3.65-5.07.69-11.56-.25-16.72,1.26-.89.26-.76,1.95-1.34,1.97-2.21.1-8.06-3.75-8.54,2.01h-5.07c-3.96-1.72-11.45-1.69-15.21,0h-5.07c.03-3.1-1.39-2.59-3.54-3.05-5.33-1.15-10.62.18-14.7-1.01,2.34-1.3,3.1-.9,3.79-3.76,4.54-18.79,6.8-50.06,7.41-69.68.42-13.41-.75-26.73-1.06-40.09,12.06,3.72,35.04,2.83,46.63-2.54,27.43-12.71,8.69-51.95,8.11-74.5,12.33-1.91,13.7-16,1.26-20.05-1.24-.4-4.01,0-4.28-.26-.46-.45.21-9.51-3.67-12.03-5.39-3.5-10.36,2.71-15.64,4.43-7.62,2.47-17.25,2.39-24.68-.61-4.26-1.72-7.17-5.76-12.06-4.76-6.8,1.4-4.19,10.79-5.9,12.94-.29.37-1.42-.07-1.94.06-2.08-7.95,6.76-14.53,7.88-20,1.52-7.46.13-19.58,1.26-28.14,1.45-11.02,4.75-23.71,13.16-31.44-1.53.2-5.7-1.5-6.08-1.52,2.84.68,5.64-.81,8.11-1.01ZM229.73,237.45c12.25-10.23.23-31.62-9.6-21.28-6.17,6.49-4.05,23.95,7.64,22.93,1.72-.15,1.35-1.13,1.96-1.65Z"/>
          <path class="cls-9" d="M186.69,464.05h-15.21c3.75-1.69,11.24-1.72,15.21,0Z"/>
          <path class="cls-11" d="M162.36,168.03c.37.02,4.55,1.71,6.08,1.52-8.41,7.73-11.71,20.43-13.16,31.44-1.13,8.56.27,20.68-1.26,28.14-1.12,5.47-9.96,12.05-7.88,20-14.45,3.61-14.66,16.34-.97,20.85-1.64,14.84-6.01,30.93-7.01,45.68-.95,14.07,6.29,26.52,20.14,30.79.32,13.36,1.48,26.68,1.06,40.09-.61,19.62-2.87,50.9-7.41,69.68-.69,2.86-1.46,2.47-3.79,3.76-3.57-1.03-4.67-2.41-9.13-1.02l1.03-2.01c-5.07,2.34-5.47-3.66-11.17-1.03l1.01-1.98c-2.76-1.97-8.54-.89-10.62-2.02-.85-.46,1.57-.47-2.55-2.07,20.13-49.2,19.81-98.49.18-147.68-4.17-10.46-18.51-35.99-18.5-45.44.01-8.17,6.27-18.38,13.55-22,3.32-1.65,6.17-1.62,9.84-3.85.64-.39,1.37-.65,2.03-1.01,4.02,19.73,24.41,4.56,15.41-11.86-3.81-6.96-13.04-4.93-15.41,1.73-2.69-2.71.66-8.44-2.03-11.15,1.53-18.82,20.8-41.37,40.55-40.55Z"/>
          <path class="cls-10" d="M123.84,219.73c-.92,2.59-.56,7.41,0,10.14-.66.36-1.39.62-2.03,1.01.42-7.27-.58-15.12,0-22.3,2.69,2.71-.66,8.44,2.03,11.15Z"/>
          <path class="cls-9" d="M171.48,167.02c.41,2.87-1.42,2.87-1.01,0,.34-.03.68.02,1.01,0Z"/>
          <path class="cls-2" d="M146.14,249.13c.52-.13,1.65.3,1.94-.06,1.71-2.14-.9-11.54,5.9-12.94,4.88-1.01,7.8,3.04,12.06,4.76,7.43,3,17.06,3.08,24.68.61,5.28-1.71,10.25-7.93,15.64-4.43,3.88,2.52,3.21,11.58,3.67,12.03.26.26,3.04-.14,4.28.26,12.44,4.05,11.07,18.14-1.26,20.05.58,22.55,19.32,61.78-8.11,74.5-11.59,5.37-34.57,6.26-46.63,2.54-13.85-4.28-21.09-16.73-20.14-30.79.99-14.75,5.37-30.84,7.01-45.68-13.69-4.51-13.48-17.24.97-20.85ZM203.6,273.61c-6.12.56-11.35,18.25-5.03,19.99,8.81,2.43,12.89-20.7,5.03-19.99ZM158.02,276.81c-8.71-7.2-10.25,11.08-2.69,17.37,8.73,7.26,8.9-12.23,2.69-17.37Z"/>
          <path class="cls-8" d="M229.73,237.45c-.62.52-.24,1.5-1.96,1.65-11.69,1.02-13.81-16.43-7.64-22.93,9.83-10.34,21.85,11.05,9.6,21.28Z"/>
          <path class="cls-8" d="M123.84,229.87c-.56-2.73-.92-7.55,0-10.14,2.37-6.65,11.6-8.68,15.41-1.73,9,16.42-11.39,31.59-15.41,11.86Z"/>
          <path class="cls-8" d="M158.02,276.81c6.21,5.14,6.05,24.63-2.69,17.37-7.57-6.29-6.02-24.57,2.69-17.37Z"/>
          <path class="cls-8" d="M203.6,273.61c7.85-.71,3.78,22.42-5.03,19.99-6.32-1.74-1.08-19.43,5.03-19.99Z"/>
        </g>
      </g>
    </g>
  </g>
  <g id="idea">
    <g>
      <path class="cls-7" d="M264.5,221.63c0,2.18-2.53,3.95-5.66,3.95s-5.66-1.77-5.66-3.95,2.53-3.95,5.66-3.95,5.66,1.77,5.66,3.95Z"/>
      <path class="cls-6" d="M264.5,221.63c0,2.18-2.53,3.95-5.66,3.95s-5.66-1.77-5.66-3.95,2.53-3.95,5.66-3.95,5.66,1.77,5.66,3.95Z"/>
    </g>
    <g>
      <ellipse class="cls-7" cx="295.63" cy="214.85" rx="22.38" ry="15.59"/>
      <ellipse class="cls-6" cx="295.63" cy="214.85" rx="22.38" ry="15.59"/>
    </g>
    <g>
      <g>
        <path class="cls-7" d="M476,125.71c0-12.79-6.68-24.36-17.44-32.66.35-1.67.54-3.38.54-5.12,0-17.05-17.32-30.9-38.88-31.3-6.51-16.48-26.06-28.44-49.15-28.44-18.41,0-34.56,7.61-43.65,19.04-2.26-.31-4.58-.49-6.96-.49-21.99,0-39.82,14.02-39.82,31.32,0,2.99.54,5.87,1.54,8.61-14.01,7.36-23.24,19.9-23.24,34.14s8.57,25.85,21.72,33.3c0,.15-.01.29-.01.44,0,16.79,16.79,30.49,37.89,31.28,11.63,11.36,29.45,18.64,49.44,18.64,14.03,0,27-3.59,37.5-9.65,1.77.19,3.57.3,5.41.3,21.99,0,39.82-14.02,39.82-31.32,0-.11,0-.21-.01-.32,15.28-8.25,25.31-22.08,25.31-37.76Z"/>
        <path class="cls-6" d="M476,125.71c0-12.79-6.68-24.36-17.44-32.66.35-1.67.54-3.38.54-5.12,0-17.05-17.32-30.9-38.88-31.3-6.51-16.48-26.06-28.44-49.15-28.44-18.41,0-34.56,7.61-43.65,19.04-2.26-.31-4.58-.49-6.96-.49-21.99,0-39.82,14.02-39.82,31.32,0,2.99.54,5.87,1.54,8.61-14.01,7.36-23.24,19.9-23.24,34.14s8.57,25.85,21.72,33.3c0,.15-.01.29-.01.44,0,16.79,16.79,30.49,37.89,31.28,11.63,11.36,29.45,18.64,49.44,18.64,14.03,0,27-3.59,37.5-9.65,1.77.19,3.57.3,5.41.3,21.99,0,39.82-14.02,39.82-31.32,0-.11,0-.21-.01-.32,15.28-8.25,25.31-22.08,25.31-37.76Z"/>
      </g>
      <g>
        <g>
          <path class="cls-8" d="M371.95,158.28c-1.1,4.15-7.69,6.01-14.71,4.14-7.02-1.86-11.83-6.74-10.73-10.89,1.1-4.15,7.69-6.01,14.71-4.14,7.02,1.86,11.83,6.74,10.73,10.89Z"/>
          <path class="cls-11" d="M381.1,145.96c.93-.58,1.57-1.3,1.8-2.18,1.08-4.08-6.71-9.68-17.4-12.51-10.69-2.83-20.23-1.83-21.31,2.25-.23.87-.04,1.81.49,2.78-.32.37-.55.77-.67,1.21-.23.86-.02,1.8.52,2.76-.34.37-.58.78-.7,1.24-.23.86,0,1.79.55,2.74-.36.37-.62.79-.74,1.25-.23.85,0,1.78.59,2.74-.38.37-.66.79-.78,1.26-.9,3.39,5.58,8.05,14.47,10.4,8.89,2.36,16.82,1.52,17.72-1.87.13-.47.09-.97-.05-1.48.99-.54,1.65-1.23,1.87-2.08.12-.46.11-.95-.02-1.46.96-.55,1.61-1.25,1.84-2.11.12-.46.12-.93,0-1.43.94-.57,1.59-1.28,1.81-2.14.12-.45.11-.91.02-1.39Z"/>
          <path class="cls-3" d="M381.1,145.96c.93-.58,1.57-1.3,1.8-2.18,1.08-4.08-6.71-9.68-17.4-12.51-10.69-2.83-20.23-1.83-21.31,2.25-.23.87-.04,1.81.49,2.78-.32.37-.55.77-.67,1.21-.23.86-.02,1.8.52,2.76-.34.37-.58.78-.7,1.24-.23.86,0,1.79.55,2.74-.36.37-.62.79-.74,1.25-.23.85,0,1.78.59,2.74-.38.37-.66.79-.78,1.26-.9,3.39,5.58,8.05,14.47,10.4,8.89,2.36,16.82,1.52,17.72-1.87.13-.47.09-.97-.05-1.48.99-.54,1.65-1.23,1.87-2.08.12-.46.11-.95-.02-1.46.96-.55,1.61-1.25,1.84-2.11.12-.46.12-.93,0-1.43.94-.57,1.59-1.28,1.81-2.14.12-.45.11-.91.02-1.39Z"/>
          <path class="cls-7" d="M406.73,114.04c5.23-19.72-7.24-39.97-27.63-43.9-17.59-3.39-35.2,7.21-40.48,24.33-3.43,11.12-1.14,22.54,5.11,31.21,1.13,1.57,1.47,3.6.79,5.42-.03.09-.06.18-.09.27-1.1,4.14,6.81,9.83,17.67,12.71,10.86,2.88,20.55,1.86,21.64-2.28.02-.09.04-.18.06-.27.32-1.94,1.64-3.53,3.42-4.35,9.29-4.26,16.68-12.48,19.5-23.13Z"/>
          <path class="cls-3" d="M406.73,114.04c5.23-19.72-7.24-39.97-27.63-43.9-17.59-3.39-35.2,7.21-40.48,24.33-3.43,11.12-1.14,22.54,5.11,31.21,1.13,1.57,1.47,3.6.79,5.42-.03.09-.06.18-.09.27-1.1,4.14,6.81,9.83,17.67,12.71,10.86,2.88,20.55,1.86,21.64-2.28.02-.09.04-.18.06-.27.32-1.94,1.64-3.53,3.42-4.35,9.29-4.26,16.68-12.48,19.5-23.13Z"/>
          <path class="cls-5" d="M369.66,140.06c-.06,0-.11-.01-.17-.03-.22-.09-.32-.34-.23-.56.27-.64,6.44-15,15.78-18.74l-5.08-1.35c-.17-.04-.29-.18-.31-.35l-.64-4.46-6,7.05c-.11.12-.27.18-.43.13-.16-.04-.28-.17-.31-.33l-1.74-9.2-5.76,6.1c-.11.11-.27.16-.42.12-.15-.04-.27-.16-.3-.31l-1.97-8.11-2.81,3.61c-.1.13-.28.2-.44.15l-5.47-1.45c1.64,3.04,6.52,13.38,3.72,23.97-.06.23-.3.37-.52.3-.23-.06-.36-.29-.3-.52,3.23-12.18-4.05-24.07-4.12-24.19-.09-.15-.09-.34.02-.48.1-.14.28-.21.45-.16l6.18,1.64,3.17-4.08c.1-.13.26-.19.42-.15.16.03.29.16.32.32l1.99,8.2,5.79-6.14c.11-.12.28-.16.43-.12.15.05.27.17.3.33l1.73,9.14,6.03-7.09c.11-.13.28-.18.44-.13.16.05.28.18.3.35l.74,5.12,6.18,1.64c.19.05.32.22.32.41s-.13.36-.31.41c-9.7,2.68-16.51,18.55-16.58,18.71-.07.16-.23.26-.39.26Z"/>
        </g>
        <path class="cls-4" d="M388.65,83.09c1.55,7.64-6.06,15.63-16.99,17.85-10.94,2.22-21.06-2.16-22.61-9.8-1.55-7.64,6.06-15.63,16.99-17.85s21.06,2.16,22.61,9.8Z"/>
        <path class="cls-4" d="M380.06,107.46c.62,3.07-2.43,6.27-6.82,7.17-4.39.89-8.46-.87-9.08-3.93-.62-3.07,2.43-6.27,6.82-7.17,4.39-.89,8.46.87,9.08,3.93Z"/>
      </g>
    </g>
  </g>
</svg>