<?xml version="1.0" encoding="UTF-8"?>
<svg id="Layer_1" xmlns="http://www.w3.org/2000/svg" version="1.1" viewBox="0 0 1024 1024">
  <!-- Generator: Adobe Illustrator 29.5.1, SVG Export Plug-In . SVG Version: 2.1.0 Build 141)  -->
  <defs>
    <style>
      .st0, .st1, .st2 {
        fill: #cf5c2f;
      }

      .st3 {
        fill: #486765;
      }

      .st4, .st5, .st6, .st7 {
        fill: #fff;
      }

      .st1 {
        opacity: .6;
      }

      .st1, .st2, .st5, .st6, .st7 {
        isolation: isolate;
      }

      .st2 {
        opacity: .5;
      }

      .st8 {
        fill: #fae9da;
      }

      .st5 {
        opacity: .7;
      }

      .st6 {
        opacity: .3;
      }

      .st7 {
        opacity: .4;
      }
    </style>
  </defs>
  <g id="idea">
    <g>
      <path class="st0" d="M52.1,936.4c0,10-11.6,18.2-26,18.2S0,946.5,0,936.4s11.6-18.2,26-18.2,26,8.1,26,18.2Z"/>
      <path class="st5" d="M52.1,936.4c0,10-11.6,18.2-26,18.2S0,946.5,0,936.4s11.6-18.2,26-18.2,26,8.1,26,18.2Z"/>
    </g>
    <g>
      <ellipse class="st0" cx="195.1" cy="905.3" rx="102.8" ry="71.6"/>
      <ellipse class="st5" cx="195.1" cy="905.3" rx="102.8" ry="71.6"/>
    </g>
    <g>
      <g>
        <path class="st0" d="M1024,495.7c0-58.8-30.7-111.9-80.1-150.1,1.6-7.7,2.5-15.5,2.5-23.5,0-78.4-79.6-142-178.7-143.8-29.9-75.7-119.8-130.7-225.9-130.7s-158.8,35-200.6,87.5c-10.4-1.4-21-2.3-32-2.3-101.1,0-183,64.4-183,143.9s2.5,27,7.1,39.6c-64.4,33.8-106.8,91.4-106.8,156.9s39.4,118.8,99.8,153c0,.7,0,1.3,0,2,0,77.2,77.2,140.1,174.1,143.7,53.4,52.2,135.3,85.7,227.2,85.7s124.1-16.5,172.3-44.3c8.1.9,16.4,1.4,24.9,1.4,101.1,0,183-64.4,183-143.9s0-1,0-1.5c70.2-37.9,116.3-101.5,116.3-173.5h0Z"/>
        <path class="st5" d="M1024,495.7c0-58.8-30.7-111.9-80.1-150.1,1.6-7.7,2.5-15.5,2.5-23.5,0-78.4-79.6-142-178.7-143.8-29.9-75.7-119.8-130.7-225.9-130.7s-158.8,35-200.6,87.5c-10.4-1.4-21-2.3-32-2.3-101.1,0-183,64.4-183,143.9s2.5,27,7.1,39.6c-64.4,33.8-106.8,91.4-106.8,156.9s39.4,118.8,99.8,153c0,.7,0,1.3,0,2,0,77.2,77.2,140.1,174.1,143.7,53.4,52.2,135.3,85.7,227.2,85.7s124.1-16.5,172.3-44.3c8.1.9,16.4,1.4,24.9,1.4,101.1,0,183-64.4,183-143.9s0-1,0-1.5c70.2-37.9,116.3-101.5,116.3-173.5h0Z"/>
      </g>
      <g>
        <g>
          <path class="st3" d="M545.8,645.3c-5.1,19.1-35.3,27.6-67.6,19-32.3-8.5-54.4-31-49.3-50,5.1-19.1,35.3-27.6,67.6-19,32.3,8.5,54.4,31,49.3,50Z"/>
          <path class="st8" d="M587.9,588.7c4.3-2.7,7.2-6,8.3-10,5-18.7-30.8-44.5-80-57.5-49.1-13-93-8.4-97.9,10.3-1.1,4-.2,8.3,2.3,12.8-1.5,1.7-2.5,3.5-3.1,5.6-1.1,4,0,8.3,2.4,12.7-1.6,1.7-2.7,3.6-3.2,5.7-1.1,4,0,8.2,2.5,12.6-1.7,1.7-2.8,3.6-3.4,5.7-1.1,3.9,0,8.2,2.7,12.6-1.7,1.7-3,3.6-3.6,5.8-4.1,15.6,25.6,37,66.5,47.8,40.9,10.8,77.3,7,81.4-8.6.6-2.2.4-4.5-.2-6.8,4.5-2.5,7.6-5.7,8.6-9.6.6-2.1.5-4.4,0-6.7,4.4-2.5,7.4-5.7,8.5-9.7.6-2.1.6-4.3,0-6.6,4.3-2.6,7.3-5.9,8.3-9.8.6-2.1.5-4.2,0-6.4h0Z"/>
          <path class="st6" d="M587.9,588.7c4.3-2.7,7.2-6,8.3-10,5-18.7-30.8-44.5-80-57.5-49.1-13-93-8.4-97.9,10.3-1.1,4-.2,8.3,2.3,12.8-1.5,1.7-2.5,3.5-3.1,5.6-1.1,4,0,8.3,2.4,12.7-1.6,1.7-2.7,3.6-3.2,5.7-1.1,4,0,8.2,2.5,12.6-1.7,1.7-2.8,3.6-3.4,5.7-1.1,3.9,0,8.2,2.7,12.6-1.7,1.7-3,3.6-3.6,5.8-4.1,15.6,25.6,37,66.5,47.8,40.9,10.8,77.3,7,81.4-8.6.6-2.2.4-4.5-.2-6.8,4.5-2.5,7.6-5.7,8.6-9.6.6-2.1.5-4.4,0-6.7,4.4-2.5,7.4-5.7,8.5-9.7.6-2.1.6-4.3,0-6.6,4.3-2.6,7.3-5.9,8.3-9.8.6-2.1.5-4.2,0-6.4h0Z"/>
          <path class="st0" d="M705.7,442c24-90.6-33.3-183.7-127-201.7-80.8-15.6-161.8,33.1-186,111.8-15.8,51.1-5.2,103.6,23.5,143.4,5.2,7.2,6.8,16.5,3.6,24.9-.1.4-.3.8-.4,1.2-5.1,19,31.3,45.2,81.2,58.4,49.9,13.2,94.4,8.5,99.4-10.5,0-.4.2-.8.3-1.2,1.5-8.9,7.5-16.2,15.7-20,42.7-19.6,76.7-57.4,89.6-106.3h0Z"/>
          <path class="st6" d="M705.7,442c24-90.6-33.3-183.7-127-201.7-80.8-15.6-161.8,33.1-186,111.8-15.8,51.1-5.2,103.6,23.5,143.4,5.2,7.2,6.8,16.5,3.6,24.9-.1.4-.3.8-.4,1.2-5.1,19,31.3,45.2,81.2,58.4,49.9,13.2,94.4,8.5,99.4-10.5,0-.4.2-.8.3-1.2,1.5-8.9,7.5-16.2,15.7-20,42.7-19.6,76.7-57.4,89.6-106.3h0Z"/>
          <path class="st4" d="M535.3,561.6c-.3,0-.5,0-.8-.1-1-.4-1.5-1.6-1.1-2.6,1.2-2.9,29.6-68.9,72.5-86.1l-23.3-6.2c-.8-.2-1.3-.8-1.4-1.6l-2.9-20.5-27.6,32.4c-.5.6-1.2.8-2,.6-.7-.2-1.3-.8-1.4-1.5l-8-42.3-26.5,28c-.5.5-1.2.7-1.9.6-.7-.2-1.2-.7-1.4-1.4l-9.1-37.3-12.9,16.6c-.5.6-1.3.9-2,.7l-25.1-6.7c7.5,14,30,61.5,17.1,110.2-.3,1.1-1.4,1.7-2.4,1.4-1.1-.3-1.7-1.3-1.4-2.4,14.8-56-18.6-110.6-18.9-111.2-.4-.7-.4-1.6,0-2.2.5-.6,1.3-1,2.1-.7l28.4,7.5,14.6-18.7c.5-.6,1.2-.9,1.9-.7.7.1,1.3.7,1.5,1.5l9.1,37.7,26.6-28.2c.5-.6,1.3-.7,2-.6.7.2,1.2.8,1.4,1.5l8,42,27.7-32.6c.5-.6,1.3-.8,2-.6s1.3.8,1.4,1.6l3.4,23.5,28.4,7.5c.9.2,1.5,1,1.5,1.9s-.6,1.7-1.4,1.9c-44.6,12.3-75.9,85.2-76.2,86-.3.7-1.1,1.2-1.8,1.2h0Z"/>
        </g>
        <path class="st7" d="M622.6,299.8c7.1,35.1-27.8,71.8-78.1,82-50.3,10.2-96.8-9.9-103.9-45-7.1-35.1,27.8-71.8,78.1-82,50.2-10.2,96.8,9.9,103.9,45h0Z"/>
        <path class="st7" d="M583.1,411.8c2.8,14.1-11.2,28.8-31.3,32.9-20.2,4.1-38.9-4-41.7-18.1-2.8-14.1,11.2-28.8,31.3-32.9,20.2-4.1,38.9,4,41.7,18.1Z"/>
      </g>
    </g>
  </g>
  <g id="thinking">
    <g>
      <path class="st0" d="M1024,495.7c0-58.8-30.7-111.9-80.1-150.1,1.6-7.7,2.5-15.5,2.5-23.5,0-78.4-79.6-142-178.7-143.8-29.9-75.7-119.8-130.7-225.9-130.7s-158.8,35-200.6,87.5c-10.4-1.4-21-2.3-32-2.3-101.1,0-183,64.4-183,143.9s2.5,27,7.1,39.6c-64.4,33.8-106.8,91.4-106.8,156.9s39.4,118.8,99.8,153c0,.7,0,1.3,0,2,0,77.2,77.2,140.1,174.1,143.7,53.4,52.2,135.3,85.7,227.2,85.7s124.1-16.5,172.3-44.3c8.1.9,16.4,1.4,24.9,1.4,101.1,0,183-64.4,183-143.9s0-1,0-1.5c70.2-37.9,116.3-101.5,116.3-173.5h0Z"/>
      <path class="st5" d="M1024,495.7c0-58.8-30.7-111.9-80.1-150.1,1.6-7.7,2.5-15.5,2.5-23.5,0-78.4-79.6-142-178.7-143.8-29.9-75.7-119.8-130.7-225.9-130.7s-158.8,35-200.6,87.5c-10.4-1.4-21-2.3-32-2.3-101.1,0-183,64.4-183,143.9s2.5,27,7.1,39.6c-64.4,33.8-106.8,91.4-106.8,156.9s39.4,118.8,99.8,153c0,.7,0,1.3,0,2,0,77.2,77.2,140.1,174.1,143.7,53.4,52.2,135.3,85.7,227.2,85.7s124.1-16.5,172.3-44.3c8.1.9,16.4,1.4,24.9,1.4,101.1,0,183-64.4,183-143.9s0-1,0-1.5c70.2-37.9,116.3-101.5,116.3-173.5h0Z"/>
    </g>
  </g>
  <g id="gear1">
    <path class="st0" d="M357.7,382.7l-15.7,13.1,22.4,32.5,17.9-10c9.4,9.1,20.6,16.5,33.1,21.6l-1.8,20.4,38.8,7.2,5.6-19.6c13.5-.3,26.6-3.2,38.6-8.3l13.1,15.7,32.5-22.4-10-17.9c9.1-9.5,16.5-20.6,21.6-33.1l20.4,1.8,7.2-38.8-19.6-5.6c-.3-13.5-3.2-26.6-8.3-38.6l15.7-13.1-22.4-32.5-17.9,10c-9.5-9.1-20.6-16.5-33.1-21.6l1.8-20.4-38.8-7.2-5.6,19.6c-13.5.3-26.6,3.2-38.6,8.3l-13.1-15.7-32.5,22.4,10,17.9c-9.1,9.4-16.4,20.6-21.6,33.1l-20.4-1.8-7.2,38.8,19.6,5.6c.3,13.5,3.2,26.6,8.3,38.6ZM402.9,332c5.4-29,33.2-48.2,62.3-42.8,29,5.4,48.2,33.2,42.8,62.3-5.4,29-33.2,48.2-62.3,42.8-29-5.4-48.2-33.2-42.8-62.3Z"/>
  </g>
  <g id="gear2">
    <path class="st1" d="M645.4,518l27.9,5.1,4-14.1c9.7-.2,19.1-2.3,27.8-6l9.4,11.3,23.3-16.1-7.2-12.9c6.5-6.8,11.8-14.8,15.5-23.8l14.6,1.3,5.1-27.9-14.1-4c-.2-9.7-2.3-19.1-6-27.8l11.3-9.4-16.1-23.4-12.9,7.2c-6.8-6.5-14.8-11.8-23.8-15.5l1.3-14.6-27.9-5.1-4,14.1c-9.7.2-19.1,2.3-27.8,5.9l-9.4-11.3-23.3,16.1,7.2,12.9c-6.5,6.8-11.8,14.8-15.5,23.8l-14.6-1.3-5.1,27.9,14.1,4c.2,9.7,2.3,19.1,5.9,27.8l-11.3,9.4,16.1,23.4,12.9-7.2c6.8,6.5,14.8,11.8,23.8,15.5l-1.3,14.6h0ZM637.8,425.8c3.9-20.9,23.9-34.6,44.7-30.8,20.9,3.9,34.6,23.9,30.8,44.7-3.9,20.9-23.9,34.6-44.8,30.8-20.9-3.9-34.6-23.9-30.8-44.7h0Z"/>
  </g>
  <g id="gear3">
    <path class="st2" d="M430.9,581.4c.2,11.6,2.8,22.7,7.1,33l-13.4,11.3,19.2,27.8,15.3-8.5c8.1,7.7,17.6,14.1,28.3,18.4l-1.6,17.4,33.2,6.1,4.8-16.8c11.6-.2,22.7-2.8,33-7.1l11.3,13.4,27.8-19.2-8.5-15.3c7.7-8.1,14.1-17.6,18.4-28.3l17.4,1.6,6.2-33.2-16.8-4.8c-.2-11.6-2.8-22.7-7.1-33l13.4-11.3-19.2-27.8-15.3,8.5c-8.1-7.7-17.6-14.1-28.3-18.4l1.6-17.4-33.2-6.2-4.8,16.8c-11.6.2-22.7,2.8-33,7.1l-11.2-13.4-27.8,19.2,8.5,15.3c-7.7,8.1-14.1,17.6-18.4,28.3l-17.4-1.6-6.1,33.2,16.8,4.8h0ZM476.7,571.1c4.6-24.8,28.4-41.2,53.3-36.6,24.8,4.6,41.2,28.4,36.7,53.3-4.6,24.8-28.4,41.2-53.3,36.7-24.8-4.6-41.2-28.4-36.7-53.3h0Z"/>
  </g>
</svg>