<svg class="w-full max-w-[140px] md:max-w-logo h-auto md:max-w-[375px] lg:-mb-10 min-w-[150px]" width="448" height="126" xmlns="http://www.w3.org/2000/svg" viewBox="0 0 448 126" role="img" aria-label="logo"><defs><linearGradient id="a" x1="23.734%" x2="87.885%" y1="30.834%" y2="30.834%"><stop offset="0%" stop-color="#DB2F5E"></stop><stop offset="100%" stop-color="#F3B438"></stop></linearGradient></defs><g fill="none" fill-rule="evenodd" transform="translate(.558 .539)"><path fill="#DB2F5E" d="M70.6495365,124.903 C52.4985365,124.903 36.8835365,114.495 29.9025365,97.74 L0.730536491,27.734 C-1.27946351,22.911 1.00053649,17.373 5.82453649,15.362 C10.6445365,13.354 16.1855365,15.633 18.1955365,20.456 L47.3685365,90.462 C52.1365365,101.905 62.5205365,105.982 70.6495365,105.982 C78.7765365,105.982 89.1595365,101.905 93.9275365,90.463 L123.100536,20.456 C125.111536,15.633 130.646536,13.354 135.472536,15.362 C140.295536,17.373 142.575536,22.911 140.566536,27.734 L111.393536,97.74 C104.411536,114.494 88.8005365,124.903 70.6495365,124.903"></path><path fill="#F3B438" d="M446.152536,111.804 L416.979536,41.798 C409.997536,25.043 394.386536,14.634 376.235536,14.634 C376.233536,14.634 376.235536,14.634 376.233536,14.634 C358.084536,14.634 342.470536,25.043 335.488536,41.797 L306.316536,111.804 C304.307536,116.627 306.587536,122.165 311.410536,124.176 C316.234536,126.185 321.772536,123.904 323.782536,119.082 L335.509536,90.938 L382.025536,90.938 C387.250536,90.938 391.486536,86.702 391.486536,81.477 C391.486536,76.252 387.250536,72.016 382.025536,72.016 L343.394536,72.016 L352.954536,49.075 C357.723536,37.632 368.106536,33.555 376.235536,33.555 C384.362536,33.555 394.746536,37.633 399.513536,49.075 L428.686536,119.082 C430.201536,122.715 433.718536,124.906 437.423536,124.906 C438.636536,124.906 439.870536,124.671 441.058536,124.176 C445.881536,122.165 448.162536,116.627 446.152536,111.804"></path><path fill="url(#a)" d="M306.202723,50.486 C306.211536,55.73 305.259536,61.196 303.143536,66.303 C301.040536,71.406 297.813536,76.114 293.775536,79.857 C289.725536,83.588 284.978536,86.437 279.920536,88.291 C274.845536,90.101 269.465536,90.962 264.062536,90.807 C256.543536,90.516 248.904536,88.163 242.569536,83.655 C239.417536,81.407 236.623536,78.689 234.264536,75.689 C232.093603,72.8619333 230.374776,69.80228 228.960084,66.6685822 L228.648536,65.966 L228.648536,65.966 L221.605536,49.066 L221.605536,49.066 C219.616536,44.348 216.467536,40.431 212.385536,37.733 C208.324536,35.026 203.346536,33.558 198.329536,33.556 C193.312536,33.558 188.334536,35.026 184.273536,37.733 C180.332295,40.3379655 177.259886,44.0793115 175.263327,48.5808055 L175.043536,49.089 L145.876536,119.082 C143.866536,123.904 138.327536,126.185 133.505536,124.175 C128.682536,122.165 126.401536,116.627 128.411536,111.804 L157.590536,41.781 L157.590536,41.781 C160.838536,33.944 166.511536,26.755 173.820536,21.962 C181.098536,17.124 189.739536,14.635 198.329536,14.635 C206.919536,14.635 215.560536,17.124 222.837536,21.962 C229.980423,26.6460682 235.560828,33.6184649 238.842333,41.2476837 L239.080536,41.81 L239.080536,41.81 L246.123536,58.711 C247.005536,60.671 248.007536,62.513 249.233536,64.116 C250.489536,65.687 251.906536,67.062 253.492536,68.206 C256.674536,70.473 260.611536,71.711 264.718536,71.898 C267.667536,71.97 270.668536,71.492 273.463536,70.506 C276.246536,69.478 278.779536,67.928 280.881536,66.009 C284.931686,62.197725 287.178501,56.9700187 287.278115,50.9440965 L287.281536,50.479 L287.281536,47.909 C287.281536,42.684 291.517536,38.449 296.742536,38.449 C301.966536,38.449 306.202723,42.684 306.202723,47.909 L306.202723,50.486 Z"></path><path fill="#DB2E5D" d="M203.963536,90.938 L151.297536,90.938 C146.072536,90.938 141.836536,86.702 141.836536,81.477 C141.836536,76.252 146.072536,72.016 151.297536,72.016 L203.963536,72.016 C209.188536,72.016 213.424536,76.252 213.424536,81.477 C213.424536,86.702 209.188536,90.938 203.963536,90.938"></path><path fill="#F3B438" d="M310.021536,13.279 C310.021536,20.613 304.076536,26.558 296.742536,26.558 C289.408536,26.558 283.462536,20.613 283.462536,13.279 C283.462536,5.945 289.408536,0 296.742536,0 C304.076536,0 310.021536,5.945 310.021536,13.279"></path></g></svg>